<?xml version="1.0" encoding="UTF-8"?>
<!DOCTYPE svg PUBLIC "-//W3C//DTD SVG 1.1//EN" "http://www.w3.org/Graphics/SVG/1.1/DTD/svg11.dtd">
<!-- Creator: CorelDRAW 2019 (64-Bit) -->
<svg xmlns="http://www.w3.org/2000/svg" xml:space="preserve" width="200mm" height="50mm" version="1.1" shape-rendering="geometricPrecision" text-rendering="geometricPrecision" image-rendering="optimizeQuality" fill-rule="evenodd" clip-rule="evenodd"
viewBox="0 0 20000 5000"
 xmlns:xlink="http://www.w3.org/1999/xlink">
 <g id="Capa_x0020_1">
  <metadata id="CorelCorpID_0Corel-Layer"/>
  <path fill="#00AFEF" fill-rule="nonzero" d="M2515.73 2085.32l0 363.94 -316.78 0c-43.03,0 -73.76,6.54 -91.39,19.24 -18.04,13.13 -27.05,34.85 -27.05,65.58 0,34.85 9.01,57.36 27.45,68.45 18.45,11.06 55.75,16.37 112.29,16.37l327.46 0 0 467.21 -382.36 0c-180.33,0 -318.45,-43.04 -413.93,-128.69 -95.48,-86.07 -143.01,-210.23 -143.01,-372.52l0 -642.59c0,-157.39 45.08,-279.5 135.22,-366.37 90.59,-86.48 217.2,-129.94 381.13,-129.94l422.95 0 0 472.12 -310.64 0c-83.2,0 -124.59,27.46 -124.59,81.98 0,31.95 9.84,54.1 29.51,66.38 20.07,12.7 55.32,18.84 105.72,18.84l268.02 0zm1013.06 449.58l445.49 -16.8c-12.71,172.52 -77.06,314.73 -193.04,425.79 -115.98,111.06 -257.37,166.8 -423.74,166.8 -176.24,0 -324.59,-61.06 -445.89,-183.6 -121.31,-122.54 -181.95,-272.52 -181.95,-449.98 0,-168.84 61.06,-313.1 183.58,-433.17 122.54,-120.07 269.27,-179.91 440.56,-179.91 149.58,0 281.56,47.13 396.29,141.39 114.35,94.66 185.64,214.75 213.53,361.03l-454.9 16.83c-39.34,-51.25 -88.94,-76.64 -148.78,-76.64 -51.22,0 -93.43,16.8 -126.21,50.4 -32.8,33.6 -49.17,76.21 -49.17,127.46 0,52.05 17.2,95.49 52.04,130.73 34.83,35.25 78.26,52.85 130.31,52.85 75.81,0 129.93,-44.26 161.88,-133.18zm1208.95 -670.87c170.07,0 315.55,61.06 436.87,183.18 121.72,122.14 182.38,268.45 182.38,438.92 0,172.94 -61.49,320.47 -184.43,442.19 -123.36,121.71 -271.72,182.37 -445.48,182.37 -174.17,0 -322.92,-61.06 -446.29,-183.17 -123.34,-122.15 -185.22,-269.28 -185.22,-441.39 0,-175.39 61.88,-322.92 185.22,-442.59 123.37,-119.67 275.82,-179.51 456.95,-179.51zm-11.89 442.61c-48.35,0 -88.91,17.6 -122.54,52.45 -33.6,34.82 -50.4,77.46 -50.4,128.28 0,49.58 16.8,92.19 50.83,127.86 34,35.25 74.59,52.85 122.11,52.85 47.96,0 88.95,-17.6 122.95,-52.85 34.02,-35.67 50.82,-78.28 50.82,-127.86 0,-50.82 -16.8,-93.46 -50.4,-128.28 -33.6,-34.85 -74.59,-52.45 -123.37,-52.45zm1884.34 779.47l-449.98 0 0 -676.2c0,-68.84 -27.86,-103.27 -84.02,-103.27 -55.32,0 -83.18,34.43 -83.18,103.27l0 676.2 -449.98 0 0 -668.01c0,-155.74 51.63,-287.27 154.9,-393.83 103.27,-106.97 229.51,-160.24 379.51,-160.24 170.89,0 308.16,61.88 411.43,186.05 80.76,96.73 121.32,231.55 121.32,404.09l0 631.94zm830.29 -1222.08c170.07,0 315.55,61.06 436.87,183.18 121.72,122.14 182.38,268.45 182.38,438.92 0,172.94 -61.49,320.47 -184.43,442.19 -123.36,121.71 -271.72,182.37 -445.48,182.37 -174.17,0 -322.92,-61.06 -446.29,-183.17 -123.34,-122.15 -185.22,-269.28 -185.22,-441.39 0,-175.39 61.88,-322.92 185.22,-442.59 123.37,-119.67 275.82,-179.51 456.95,-179.51zm-11.89 442.61c-48.35,0 -88.91,17.6 -122.54,52.45 -33.6,34.82 -50.4,77.46 -50.4,128.28 0,49.58 16.8,92.19 50.83,127.86 34,35.25 74.58,52.85 122.11,52.85 47.96,0 88.95,-17.6 122.95,-52.85 34.02,-35.67 50.82,-78.28 50.82,-127.86 0,-50.82 -16.8,-93.46 -50.4,-128.28 -33.6,-34.85 -74.59,-52.45 -123.37,-52.45zm2459.73 779.47l-449.98 0 0 -646.29c0,-50 -4.91,-84.82 -15.17,-104.09 -10.24,-19.25 -28.69,-29.09 -55.75,-29.09 -49.57,0 -74.16,44.66 -74.16,134.4l0 645.07 -449.98 0 0 -646.29c0,-50 -5.34,-84.82 -16.4,-104.09 -10.66,-19.25 -29.5,-29.09 -56.54,-29.09 -49.6,0 -74.59,44.66 -74.59,134.4l0 645.07 -449.98 0 0 -737.68c0,-134.42 45.49,-248.75 136.05,-343.01 90.57,-94.26 200.4,-141.39 329.51,-141.39 132.78,0 252.45,56.14 358.16,168.85 117.63,-112.71 234.83,-168.85 352.45,-168.85 149.58,0 269.25,54.49 359.82,163.51 70.89,84.84 106.56,208.61 106.56,371.72l0 686.85zm712.66 -1197.49l0 1197.49 -449.98 0 0 -1197.49 449.98 0zm-222.54 -533.58c61.06,0 113.53,21.32 158.19,64.33 44.68,42.64 66.8,93.43 66.8,152.05 0,62.3 -20.9,113.93 -63.11,153.69 -42.21,40.14 -95.9,60.24 -161.88,60.24 -65.58,0 -119.67,-20.1 -161.88,-60.24 -42.22,-39.76 -63.11,-91.39 -63.11,-153.69 0,-58.62 22.14,-109.41 66.8,-152.05 44.68,-43.01 97.13,-64.33 158.19,-64.33zm908.57 2173.68l-449.98 0 0 -998.73c0,-183.61 47.95,-333.18 144.26,-448.34 55.32,-66.4 125.81,-119.27 211.06,-158.61 85.25,-39.34 172.94,-59.01 262.68,-59.01 178.68,0 329.51,60.23 452.03,180.33 122.54,120.07 184.02,267.2 184.02,441.77 0,169.67 -61.08,316.37 -182.78,439.74 -121.71,123.34 -265.57,184.82 -432.37,184.82 -27.04,0 -67.2,-2.44 -120.08,-7.79l0 -495.06c36.9,28.69 73.77,43.04 110.66,43.04 46.71,0 86.48,-17.22 119.68,-51.65 33.17,-34.42 50,-74.99 50,-122.12 0,-47.52 -17.23,-87.69 -51.65,-120.89 -34.82,-33.2 -75.81,-49.58 -124.17,-49.58 -115.57,0 -173.36,79.91 -173.36,240.15l0 981.93zm1449.93 -2082.72l0 501.63c75.81,-55.74 151.63,-83.6 227.44,-83.6 115.15,0 206.14,41.81 273.76,124.99 67.63,83.6 101.23,195.91 101.23,338.09l0 759 -449.98 0 0 -633.18c0,-50.8 -5.34,-85.23 -15.98,-102.85 -10.66,-17.62 -31.15,-26.24 -61.88,-26.24 -49.6,0 -74.59,36.9 -74.59,111.06l0 651.21 -449.98 0 0 -1640.11 449.98 0zm1433.11 418.03c170.07,0 315.56,61.06 436.87,183.18 121.72,122.14 182.38,268.45 182.38,438.92 0,172.94 -61.48,320.47 -184.42,442.19 -123.37,121.71 -271.72,182.37 -445.49,182.37 -174.16,0 -322.91,-61.06 -446.28,-183.17 -123.34,-122.15 -185.22,-269.28 -185.22,-441.39 0,-175.39 61.88,-322.92 185.22,-442.59 123.37,-119.67 275.81,-179.51 456.94,-179.51zm-11.88 442.61c-48.35,0 -88.92,17.6 -122.54,52.45 -33.6,34.82 -50.4,77.46 -50.4,128.28 0,49.58 16.8,92.19 50.82,127.86 34,35.25 74.59,52.85 122.12,52.85 47.95,0 88.94,-17.6 122.94,-52.85 34.03,-35.67 50.83,-78.28 50.83,-127.86 0,-50.82 -16.8,-93.46 -50.4,-128.28 -33.6,-34.85 -74.59,-52.45 -123.37,-52.45zm1884.34 779.47l-449.98 0 0 -676.2c0,-68.84 -27.86,-103.27 -84.03,-103.27 -55.31,0 -83.17,34.43 -83.17,103.27l0 676.2 -449.98 0 0 -668.01c0,-155.74 51.62,-287.27 154.89,-393.83 103.27,-106.97 229.51,-160.24 379.51,-160.24 170.9,0 308.17,61.88 411.44,186.05 80.75,96.73 121.32,231.55 121.32,404.09l0 631.94zm1438.87 -526.22l-680.71 0c-9.43,-34.42 -14.35,-65.55 -14.35,-94.26 0,-39.74 6.97,-79.08 20.49,-117.2l228.26 0c-15.97,-90.16 -65.97,-135.25 -149.97,-135.25 -56.14,0 -101.65,23.79 -136.9,71.72 -35.22,47.56 -52.84,109.01 -52.84,183.6 0,77.89 16.8,140.57 50.8,188.95 34.02,47.92 78.68,72.11 134.02,72.11 44.66,0 88.09,-22.54 129.51,-67.62l255.72 307.79c-119.25,93.83 -252.05,140.96 -397.94,140.96 -177.46,0 -327.03,-59.83 -447.93,-179.08 -120.89,-119.67 -181.55,-267.2 -181.55,-443.84 0,-175.41 61.06,-323.76 183.2,-444.66 122.52,-120.89 272.52,-181.53 450.38,-181.53 173.76,0 320.07,59.02 438.09,177.44 118.45,118.02 177.46,263.51 177.46,436.87 0,17.62 -2.04,45.48 -5.74,84zm935.61 -654.05l0 473.32c-63.11,0 -106.55,11.88 -129.91,35.25 -23.77,23.76 -38.52,70.49 -45.08,139.76 -20.9,231.13 -110.24,394.24 -268.43,489.32 -84.02,49.58 -203.27,74.59 -357.36,74.59l-62.29 0 0 -474.59 20.47 0c71.72,0 122.97,-15.15 154.1,-45.06 30.75,-29.93 48.35,-82.8 53.27,-157.79 6.16,-122.54 17.62,-209.01 34.02,-258.58 16.4,-49.61 50,-98.78 100,-147.53 88.12,-85.68 209.82,-128.69 365.56,-128.69l135.65 0z"/>
 </g>
</svg>
